<?xml version="1.0" encoding="UTF-8" standalone="no"?><svg xmlns="http://www.w3.org/2000/svg" xmlns:xlink="http://www.w3.org/1999/xlink" contentScriptType="application/ecmascript" contentStyleType="text/css" height="281px" preserveAspectRatio="none" style="width:1276px;height:281px;" version="1.1" viewBox="0 0 1276 281" width="1276px" zoomAndPan="magnify"><defs><filter height="300%" id="f9q24m6gos8za" width="300%" x="-1" y="-1"><feGaussianBlur result="blurOut" stdDeviation="2.0"/><feColorMatrix in="blurOut" result="blurOut2" type="matrix" values="0 0 0 0 0 0 0 0 0 0 0 0 0 0 0 0 0 0 .4 0"/><feOffset dx="4.0" dy="4.0" in="blurOut2" result="blurOut3"/><feBlend in="SourceGraphic" in2="blurOut3" mode="normal"/></filter></defs><g><!--cluster c5dc15393ac64c2884a42d14d33b6cfb--><rect fill="#FFFFFF" filter="url(#f9q24m6gos8za)" height="246" style="stroke: #000000; stroke-width: 2.0;" width="1237" x="22" y="24"/><polygon fill="#FFFFFF" points="1242,29,1242,43,1254,43,1254,35,1248,29,1242,29" style="stroke: #000000; stroke-width: 2.0;"/><line style="stroke: #000000; stroke-width: 2.0;" x1="1248" x2="1248" y1="29" y2="35"/><line style="stroke: #000000; stroke-width: 2.0;" x1="1254" x2="1248" y1="35" y2="35"/><text fill="#000000" font-family="sans-serif" font-size="14" font-weight="bold" lengthAdjust="spacingAndGlyphs" textLength="65" x="608" y="40.5332">devb.war</text><!--cluster e4352e529f604a8dadf8438b95ea9224--><polygon fill="#FFFFFF" filter="url(#f9q24m6gos8za)" points="601,68,667,68,674,91.6094,1235,91.6094,1235,246,601,246,601,68" style="stroke: #000000; stroke-width: 2.0;"/><line style="stroke: #000000; stroke-width: 2.0;" x1="601" x2="674" y1="91.6094" y2="91.6094"/><text fill="#000000" font-family="sans-serif" font-size="14" font-weight="bold" lengthAdjust="spacingAndGlyphs" textLength="60" x="605" y="84.5332">WEB-INF</text><!--cluster 78d1c4d43a184477b9eb176d89ec7923--><polygon fill="#FFFFFF" filter="url(#f9q24m6gos8za)" points="1013,112,1036,112,1043,135.6094,1211,135.6094,1211,222,1013,222,1013,112" style="stroke: #000000; stroke-width: 2.0;"/><line style="stroke: #000000; stroke-width: 2.0;" x1="1013" x2="1043" y1="135.6094" y2="135.6094"/><text fill="#000000" font-family="sans-serif" font-size="14" font-weight="bold" lengthAdjust="spacingAndGlyphs" textLength="17" x="1017" y="128.5332">lib</text><!--cluster c685970ee9504424877d39376351b7b3--><polygon fill="#FFFFFF" filter="url(#f9q24m6gos8za)" points="433,122,506,122,513,145.6094,577,145.6094,577,212,433,212,433,122" style="stroke: #000000; stroke-width: 2.0;"/><line style="stroke: #000000; stroke-width: 2.0;" x1="433" x2="513" y1="145.6094" y2="145.6094"/><text fill="#000000" font-family="sans-serif" font-size="14" font-weight="bold" lengthAdjust="spacingAndGlyphs" textLength="67" x="437" y="138.5332">META-INF</text><!--entity c8dabfbe72d34873a6229b75f729ad25--><polygon fill="#FEFECE" filter="url(#f9q24m6gos8za)" points="338.5,158,338.5,195.6094,413.5,195.6094,413.5,168,403.5,158,338.5,158" style="stroke: #000000; stroke-width: 1.5;"/><path d="M403.5,158 L403.5,168 L413.5,168 " fill="#FEFECE" style="stroke: #000000; stroke-width: 1.5;"/><text fill="#000000" font-family="sans-serif" font-size="14" lengthAdjust="spacingAndGlyphs" textLength="55" x="348.5" y="182.5332">index.jsp</text><!--entity maven--><polygon fill="#FEFECE" filter="url(#f9q24m6gos8za)" points="38.5,148,86.5,148,93.5,171.6094,303.5,171.6094,303.5,206.2188,38.5,206.2188,38.5,148" style="stroke: #000000; stroke-width: 1.5;"/><line style="stroke: #000000; stroke-width: 1.5;" x1="38.5" x2="93.5" y1="171.6094" y2="171.6094"/><text fill="#000000" font-family="sans-serif" font-size="14" lengthAdjust="spacingAndGlyphs" textLength="42" x="42.5" y="165.5332">maven</text><text fill="#000000" font-family="sans-serif" font-size="14" lengthAdjust="spacingAndGlyphs" textLength="235" x="48.5" y="193.1426">0714607b3ff64caf91dfeb197da4f993</text><!--entity 3c12891411ea4fffb19670d5aa6666b0--><polygon fill="#FEFECE" filter="url(#f9q24m6gos8za)" points="925.5,158,925.5,195.6094,994.5,195.6094,994.5,168,984.5,158,925.5,158" style="stroke: #000000; stroke-width: 1.5;"/><path d="M984.5,158 L984.5,168 L994.5,168 " fill="#FEFECE" style="stroke: #000000; stroke-width: 1.5;"/><text fill="#000000" font-family="sans-serif" font-size="14" lengthAdjust="spacingAndGlyphs" textLength="49" x="935.5" y="182.5332">web.xml</text><!--entity classes--><polygon fill="#FEFECE" filter="url(#f9q24m6gos8za)" points="617.5,148,670.5,148,677.5,171.6094,890.5,171.6094,890.5,206.2188,617.5,206.2188,617.5,148" style="stroke: #000000; stroke-width: 1.5;"/><line style="stroke: #000000; stroke-width: 1.5;" x1="617.5" x2="677.5" y1="171.6094" y2="171.6094"/><text fill="#000000" font-family="sans-serif" font-size="14" lengthAdjust="spacingAndGlyphs" textLength="47" x="621.5" y="165.5332">classes</text><text fill="#000000" font-family="sans-serif" font-size="14" lengthAdjust="spacingAndGlyphs" textLength="243" x="627.5" y="193.1426">7e2e34e135014f03b205fe1e0f465cdb</text><!--entity 1f20c65c4859494185e577352d330e8d--><rect fill="#FEFECE" filter="url(#f9q24m6gos8za)" height="58.2188" style="stroke: #000000; stroke-width: 1.5;" width="165" x="1029.5" y="148"/><polygon fill="#FEFECE" points="1177.5,153,1177.5,167,1189.5,167,1189.5,159,1183.5,153,1177.5,153" style="stroke: #000000; stroke-width: 1.5;"/><line style="stroke: #000000; stroke-width: 1.5;" x1="1183.5" x2="1183.5" y1="153" y2="159"/><line style="stroke: #000000; stroke-width: 1.5;" x1="1189.5" x2="1183.5" y1="159" y2="159"/><text fill="#000000" font-family="sans-serif" font-size="14" font-style="italic" lengthAdjust="spacingAndGlyphs" textLength="55" x="1079.5" y="175.5332">«library»</text><text fill="#000000" font-family="sans-serif" font-size="14" lengthAdjust="spacingAndGlyphs" textLength="135" x="1039.5" y="193.1426">commons-cli-1.3.1.jar</text><!--entity 4cb9540d61f54d5fb888211166f4d50f--><polygon fill="#FEFECE" filter="url(#f9q24m6gos8za)" points="449,158,449,195.6094,561,195.6094,561,168,551,158,449,158" style="stroke: #000000; stroke-width: 1.5;"/><path d="M551,158 L551,168 L561,168 " fill="#FEFECE" style="stroke: #000000; stroke-width: 1.5;"/><text fill="#000000" font-family="sans-serif" font-size="14" lengthAdjust="spacingAndGlyphs" textLength="92" x="459" y="182.5332">MANIFEST.MF</text><!--
@startuml
artifact "devb.war" <<war>> as c5dc15393ac64c2884a42d14d33b6cfb {
 file "index.jsp" as c8dabfbe72d34873a6229b75f729ad25 
 folder "WEB-INF" as e4352e529f604a8dadf8438b95ea9224 {
  file "web.xml" as 3c12891411ea4fffb19670d5aa6666b0 
  folder "lib" as 78d1c4d43a184477b9eb176d89ec7923 {
   artifact "commons-cli-1.3.1.jar" <<library>> as 1f20c65c4859494185e577352d330e8d 
  }
  folder classes as "7e2e34e135014f03b205fe1e0f465cdb"
 }
 folder maven as "387a5a4dba574ac3ac406857f3017110"
 folder "META-INF" as c685970ee9504424877d39376351b7b3 {
  folder maven as "0714607b3ff64caf91dfeb197da4f993"
  file "MANIFEST.MF" as 4cb9540d61f54d5fb888211166f4d50f 
 }
}
@enduml

PlantUML version 1.2017.14(Mon Jun 05 11:56:32 CEST 2017)
(GPL source distribution)
Java Runtime: Java(TM) SE Runtime Environment
JVM: Java HotSpot(TM) 64-Bit Server VM
Java Version: 1.8.0_111-b14
Operating System: Windows 10
OS Version: 10.0
Default Encoding: UTF-8
Language: en
Country: US
--></g></svg>